<svg xmlns="http://www.w3.org/2000/svg" xmlns:xlink="http://www.w3.org/1999/xlink" version="1.1" width="3300" height="1395">
			<rect fill="#149185" width="3300" height="1395"/>
			<g transform="scale(15) translate(10, 10)">
				<defs id="SvgjsDefs8229"></defs><g id="SvgjsG8230" featureKey="root" fill="#149185"></g><g id="SvgjsG8231" featureKey="text1" fill="#f9ffff" transform="matrix(1.1711055927636482,0,0,1.1711055927636482,-1.8971906470413797,-0.8555274053915785)"><path d="M12.2 16.96 c0.4 0 0.7 0.32 0.7 0.72 l0 1.46 c0 0.38 -0.3 0.7 -0.7 0.7 l-9.88 0 c-0.38 0 -0.7 -0.32 -0.7 -0.7 l0 -1.46 c0 -0.4 0.32 -0.72 0.7 -0.72 l9.88 0 z M2.32 13.86 c-0.38 0 -0.7 -0.32 -0.7 -0.7 l0 -1.5 c0 -0.38 0.32 -0.7 0.7 -0.7 l8.98 0 c0.4 0 0.72 0.32 0.72 0.7 l0 1.5 c0 0.38 -0.32 0.7 -0.72 0.7 l-8.98 0 z M12.2 5 c0.4 0 0.7 0.32 0.7 0.7 l0 1.46 c0 0.4 -0.3 0.72 -0.7 0.72 l-9.88 0 c-0.38 0 -0.7 -0.32 -0.7 -0.72 l0 -1.46 c0 -0.38 0.32 -0.7 0.7 -0.7 l9.88 0 z M24.76 16.84 c0.4 0 0.7 0.32 0.7 0.7 l0 1.44 c0 0.38 -0.3 0.7 -0.7 0.7 l-8.74 0 c-0.38 0 -0.7 -0.32 -0.7 -0.7 l0 -13.28 c0 -0.38 0.32 -0.7 0.7 -0.7 l1.5 0 c0.38 0 0.7 0.32 0.7 0.7 l0 11.14 l6.54 0 z M37.54 5 c0.38 0 0.68 0.32 0.68 0.7 l0 1.44 c0 0.38 -0.3 0.7 -0.68 0.7 l-3.94 0 l0 11.14 c0 0.38 -0.32 0.7 -0.7 0.7 l-1.5 0 c-0.4 0 -0.7 -0.32 -0.7 -0.7 l0 -11.14 l-3.94 0 c-0.38 0 -0.7 -0.32 -0.7 -0.7 l0 -1.44 c0 -0.38 0.32 -0.7 0.7 -0.7 l10.78 0 z M51.56 5 c0.38 0 0.68 0.32 0.68 0.7 l0 13.28 c0 0.38 -0.3 0.7 -0.68 0.7 l-1.52 0 c-0.38 0 -0.68 -0.32 -0.68 -0.7 l0 -5.22 l-6.34 0 l0 5.22 c0 0.38 -0.32 0.7 -0.7 0.7 l-1.5 0 c-0.38 0 -0.7 -0.32 -0.7 -0.7 l0 -13.28 c0 -0.38 0.32 -0.7 0.7 -0.7 l1.5 0 c0.38 0 0.7 0.32 0.7 0.7 l0 5.2 l6.34 0 l0 -5.2 c0 -0.38 0.3 -0.7 0.68 -0.7 l1.52 0 z M62.84 5.42 l5.6 13.22 c0.06 0.1 0.1 0.22 0.1 0.34 c0 0.38 -0.3 0.7 -0.7 0.7 l0 0 l-1.66 0 c-0.28 0 -0.54 -0.16 -0.64 -0.42 l-1.46 -3.44 l-5.66 0 l-1.44 3.44 c-0.1 0.26 -0.36 0.42 -0.64 0.42 l-1.66 0 c-0.24 0 -0.46 -0.12 -0.58 -0.32 c-0.14 -0.18 -0.16 -0.44 -0.06 -0.64 l5.64 -13.3 c0.1 -0.26 0.36 -0.42 0.64 -0.42 l1.88 0 c0.28 0 0.54 0.16 0.64 0.42 z M61.26 9.06 l-1.66 3.98 l3.32 0 z M83.88 5 c0.38 0 0.7 0.32 0.7 0.7 l0 13.28 c0 0.38 -0.32 0.7 -0.7 0.7 l-1.5 0 c-0.38 0 -0.7 -0.32 -0.7 -0.7 l0 -8.96 l-3.68 4.72 c-0.12 0.16 -0.32 0.26 -0.54 0.26 l0 0 c-0.22 0 -0.42 -0.1 -0.54 -0.26 l-3.76 -4.74 l0 8.98 c0 0.38 -0.32 0.7 -0.7 0.7 l-1.5 0 c-0.38 0 -0.7 -0.32 -0.7 -0.7 l0 -13.28 c0 -0.38 0.32 -0.7 0.7 -0.7 l1.74 0 c0.22 0 0.42 0.1 0.56 0.28 l4.2 5.56 l4.12 -5.56 c0.12 -0.18 0.34 -0.28 0.56 -0.28 l1.74 0 z   M105.72000000000001 11.12 c0.4 0 0.72 0.32 0.72 0.72 l0 1.48 c0 0.38 -0.32 0.7 -0.72 0.7 l-6.58 0 l0 5.12 c0 0.38 -0.3 0.7 -0.7 0.7 l-1.52 0 c-0.38 0 -0.7 -0.32 -0.7 -0.7 l0 -7.3 c0 -0.4 0.32 -0.72 0.7 -0.72 l8.8 0 z M106.62 5 c0.38 0 0.7 0.32 0.7 0.7 l0 1.46 c0 0.4 -0.32 0.72 -0.7 0.72 l-9.7 0 c-0.38 0 -0.7 -0.32 -0.7 -0.72 l0 -1.46 c0 -0.38 0.32 -0.7 0.7 -0.7 l9.7 0 z M116.78000000000002 5.42 l5.6 13.22 c0.06 0.1 0.1 0.22 0.1 0.34 c0 0.38 -0.3 0.7 -0.7 0.7 l0 0 l-1.66 0 c-0.28 0 -0.54 -0.16 -0.64 -0.42 l-1.46 -3.44 l-5.66 0 l-1.44 3.44 c-0.1 0.26 -0.36 0.42 -0.64 0.42 l-1.66 0 c-0.24 0 -0.46 -0.12 -0.58 -0.32 c-0.14 -0.18 -0.16 -0.44 -0.06 -0.64 l5.64 -13.3 c0.1 -0.26 0.36 -0.42 0.64 -0.42 l1.88 0 c0.28 0 0.54 0.16 0.64 0.42 z M115.20000000000002 9.06 l-1.66 3.98 l3.32 0 z M137.82000000000002 5 c0.38 0 0.7 0.32 0.7 0.7 l0 13.28 c0 0.38 -0.32 0.7 -0.7 0.7 l-1.5 0 c-0.38 0 -0.7 -0.32 -0.7 -0.7 l0 -8.96 l-3.68 4.72 c-0.12 0.16 -0.32 0.26 -0.54 0.26 l0 0 c-0.22 0 -0.42 -0.1 -0.54 -0.26 l-3.76 -4.74 l0 8.98 c0 0.38 -0.32 0.7 -0.7 0.7 l-1.5 0 c-0.38 0 -0.7 -0.32 -0.7 -0.7 l0 -13.28 c0 -0.38 0.32 -0.7 0.7 -0.7 l1.74 0 c0.22 0 0.42 0.1 0.56 0.28 l4.2 5.56 l4.12 -5.56 c0.12 -0.18 0.34 -0.28 0.56 -0.28 l1.74 0 z M143.96 5 c0.38 0 0.7 0.32 0.7 0.7 l0 13.28 c0 0.38 -0.32 0.7 -0.7 0.7 l-1.5 0 c-0.38 0 -0.7 -0.32 -0.7 -0.7 l0 -13.28 c0 -0.38 0.32 -0.7 0.7 -0.7 l1.5 0 z M157.34000000000003 16.84 c0.4 0 0.7 0.32 0.7 0.7 l0 1.44 c0 0.38 -0.3 0.7 -0.7 0.7 l-8.74 0 c-0.38 0 -0.7 -0.32 -0.7 -0.7 l0 -13.28 c0 -0.38 0.32 -0.7 0.7 -0.7 l1.5 0 c0.38 0 0.7 0.32 0.7 0.7 l0 11.14 l6.54 0 z M171.70000000000005 5 c0.26 0 0.5 0.14 0.62 0.38 c0.12 0.22 0.1 0.5 -0.04 0.72 l-5.44 7.84 l0 5.04 c0 0.38 -0.32 0.7 -0.7 0.7 l-1.5 0 c-0.38 0 -0.7 -0.32 -0.7 -0.7 l0 -5.04 l-5.46 -7.84 c-0.14 -0.22 -0.16 -0.5 -0.04 -0.72 c0.12 -0.24 0.36 -0.38 0.62 -0.38 l1.82 0 c0.24 0 0.44 0.12 0.58 0.3 l3.92 5.64 l3.92 -5.64 c0.14 -0.18 0.34 -0.3 0.58 -0.3 l1.82 0 z"></path></g><g id="SvgjsG8232" featureKey="text2" fill="#f9ffff" transform="matrix(2.410219454056019,0,0,2.410219454056019,-3.904556963666317,19.948905028284294)"><path d="M10.56 5.52 c0.84 0.32 1.58 0.84 2.2 1.48 c1.4 1.42 2.1 3.24 2.1 5.42 s-0.7 4 -2.1 5.42 c-0.62 0.64 -1.36 1.16 -2.2 1.48 c-0.82 0.34 -1.7 0.52 -2.58 0.52 l-5.66 0 c-0.38 0 -0.7 -0.32 -0.7 -0.7 l0 -1.44 c0 -0.4 0.32 -0.72 0.7 -0.72 l5.6 0 c1.2 0 2.14 -0.42 2.9 -1.3 c0.74 -0.88 1.1 -1.94 1.1 -3.26 s-0.36 -2.38 -1.1 -3.26 c-0.76 -0.88 -1.7 -1.3 -2.9 -1.3 l-5.6 0 c-0.38 0 -0.7 -0.32 -0.7 -0.72 l0 -1.44 c0 -0.38 0.32 -0.7 0.7 -0.7 l5.66 0 c0.88 0 1.76 0.18 2.58 0.52 z M27.740000000000002 5 c0.4 0 0.7 0.32 0.7 0.7 l0 1.44 c0 0.38 -0.3 0.7 -0.7 0.7 l-7.56 0 l0 3.06 l6.68 0 c0.4 0 0.7 0.32 0.7 0.7 l0 1.46 c0 0.38 -0.3 0.7 -0.7 0.7 l-6.68 0 l0 3.08 l7.56 0 c0.4 0 0.7 0.32 0.7 0.7 l0 1.44 c0 0.38 -0.3 0.7 -0.7 0.7 l-9.76 0 c-0.38 0 -0.7 -0.32 -0.7 -0.7 l0 -13.28 c0 -0.38 0.32 -0.7 0.7 -0.7 l9.76 0 z M43.02 5 c0.38 0 0.7 0.32 0.7 0.7 l0 13.28 c0 0.38 -0.32 0.7 -0.7 0.7 l-1.76 0 c-0.22 0 -0.42 -0.1 -0.56 -0.28 l-6.94 -9.5 l0 9.08 c0 0.38 -0.32 0.7 -0.7 0.7 l-1.5 0 c-0.38 0 -0.7 -0.32 -0.7 -0.7 l0 -13.28 c0 -0.38 0.32 -0.7 0.7 -0.7 l1.74 0 c0.22 0 0.44 0.1 0.56 0.28 l6.96 9.46 l0 -9.04 c0 -0.38 0.3 -0.7 0.68 -0.7 l1.52 0 z M57.1 5 c0.38 0 0.68 0.32 0.68 0.7 l0 1.44 c0 0.38 -0.3 0.7 -0.68 0.7 l-3.94 0 l0 11.14 c0 0.38 -0.32 0.7 -0.7 0.7 l-1.5 0 c-0.4 0 -0.7 -0.32 -0.7 -0.7 l0 -11.14 l-3.94 0 c-0.38 0 -0.7 -0.32 -0.7 -0.7 l0 -1.44 c0 -0.38 0.32 -0.7 0.7 -0.7 l10.78 0 z M67.04 5.42 l5.6 13.22 c0.06 0.1 0.1 0.22 0.1 0.34 c0 0.38 -0.3 0.7 -0.7 0.7 l0 0 l-1.66 0 c-0.28 0 -0.54 -0.16 -0.64 -0.42 l-1.46 -3.44 l-5.66 0 l-1.44 3.44 c-0.1 0.26 -0.36 0.42 -0.64 0.42 l-1.66 0 c-0.24 0 -0.46 -0.12 -0.58 -0.32 c-0.14 -0.18 -0.16 -0.44 -0.06 -0.64 l5.64 -13.3 c0.1 -0.26 0.36 -0.42 0.64 -0.42 l1.88 0 c0.28 0 0.54 0.16 0.64 0.42 z M65.46000000000001 9.06 l-1.66 3.98 l3.32 0 z M83.9 16.84 c0.4 0 0.7 0.32 0.7 0.7 l0 1.44 c0 0.38 -0.3 0.7 -0.7 0.7 l-8.74 0 c-0.38 0 -0.7 -0.32 -0.7 -0.7 l0 -13.28 c0 -0.38 0.32 -0.7 0.7 -0.7 l1.5 0 c0.38 0 0.7 0.32 0.7 0.7 l0 11.14 l6.54 0 z"></path></g>
			</g>
</svg>
	
